<svg width="24" height="24" viewBox="0 0 24 24" fill="none" xmlns="http://www.w3.org/2000/svg">
<g clip-path="url(#clip0_1_894)">
<path fill-rule="evenodd" clip-rule="evenodd" d="M8.293 12.707C8.10553 12.5195 8.00021 12.2652 8.00021 12C8.00021 11.7348 8.10553 11.4805 8.293 11.293L13.95 5.636C14.1386 5.45384 14.3912 5.35305 14.6534 5.35533C14.9156 5.35761 15.1664 5.46278 15.3518 5.64818C15.5372 5.83359 15.6424 6.08441 15.6447 6.3466C15.647 6.6088 15.5462 6.8614 15.364 7.05L10.414 12L15.364 16.95C15.5462 17.1386 15.647 17.3912 15.6447 17.6534C15.6424 17.9156 15.5372 18.1664 15.3518 18.3518C15.1664 18.5372 14.9156 18.6424 14.6534 18.6447C14.3912 18.647 14.1386 18.5462 13.95 18.364L8.293 12.707Z" fill="#020202"/>
</g>
<defs>
<clipPath id="clip0_1_894">
<rect width="24" height="24" fill="white" transform="matrix(0 -1 1 0 0 24)"/>
</clipPath>
</defs>
</svg>
