<svg width="20" height="20" viewBox="0 0 20 20" fill="none" xmlns="http://www.w3.org/2000/svg">
<path fill-rule="evenodd" clip-rule="evenodd" d="M13.0892 9.41086C13.2454 9.56713 13.3332 9.77906 13.3332 10C13.3332 10.221 13.2454 10.4329 13.0892 10.5892L8.37501 15.3034C8.21784 15.4552 8.00734 15.5392 7.78884 15.5373C7.57034 15.5354 7.36133 15.4477 7.20682 15.2932C7.05232 15.1387 6.96468 14.9297 6.96278 14.7112C6.96088 14.4927 7.04487 14.2822 7.19667 14.125L11.3217 10L7.19667 5.87503C7.04487 5.71786 6.96088 5.50736 6.96278 5.28886C6.96468 5.07036 7.05232 4.86135 7.20682 4.70685C7.36133 4.55234 7.57034 4.4647 7.78884 4.4628C8.00733 4.4609 8.21784 4.5449 8.37501 4.6967L13.0892 9.41086Z" fill="white"/>
</svg>
