<svg width="621" height="67" viewBox="0 0 621 67" fill="none" xmlns="http://www.w3.org/2000/svg">
<mask id="path-1-outside-1_1_527" maskUnits="userSpaceOnUse" x="-0.366272" y="-0.920044" width="622" height="68" fill="black">
<rect fill="white" x="-0.366272" y="-0.920044" width="622" height="68"/>
<path d="M43.8 27C43.8 30.2533 43.0533 33.24 41.56 35.96C40.0666 38.6266 37.7733 40.7866 34.68 42.44C31.5866 44.0933 27.7466 44.92 23.16 44.92H14.68V65.08H0.999978V8.91995H23.16C27.64 8.91995 31.4266 9.69329 34.52 11.24C37.6133 12.7866 39.9333 14.92 41.48 17.64C43.0266 20.36 43.8 23.48 43.8 27ZM22.12 34.04C24.7333 34.04 26.68 33.4266 27.96 32.2C29.24 30.9733 29.88 29.24 29.88 27C29.88 24.76 29.24 23.0266 27.96 21.8C26.68 20.5733 24.7333 19.96 22.12 19.96H14.68V34.04H22.12ZM64.6019 27.88C66.2019 25.4266 68.2019 23.5066 70.6019 22.12C73.0019 20.68 75.6685 19.96 78.6019 19.96V34.44H74.8419C71.4285 34.44 68.8685 35.1866 67.1619 36.68C65.4552 38.12 64.6019 40.68 64.6019 44.36V65.08H50.9219V20.44H64.6019V27.88ZM105.461 65.72C101.087 65.72 97.1406 64.7866 93.6206 62.92C90.1539 61.0533 87.4073 58.3866 85.3806 54.92C83.4073 51.4533 82.4206 47.4 82.4206 42.76C82.4206 38.1733 83.4339 34.1466 85.4606 30.68C87.4873 27.16 90.2606 24.4666 93.7806 22.6C97.3006 20.7333 101.247 19.8 105.621 19.8C109.994 19.8 113.941 20.7333 117.461 22.6C120.981 24.4666 123.754 27.16 125.781 30.68C127.807 34.1466 128.821 38.1733 128.821 42.76C128.821 47.3466 127.781 51.4 125.701 54.92C123.674 58.3866 120.874 61.0533 117.301 62.92C113.781 64.7866 109.834 65.72 105.461 65.72ZM105.461 53.88C108.074 53.88 110.287 52.92 112.101 51C113.967 49.08 114.901 46.3333 114.901 42.76C114.901 39.1866 113.994 36.44 112.181 34.52C110.421 32.6 108.234 31.64 105.621 31.64C102.954 31.64 100.741 32.6 98.9806 34.52C97.2206 36.3866 96.3406 39.1333 96.3406 42.76C96.3406 46.3333 97.1939 49.08 98.9006 51C100.661 52.92 102.847 53.88 105.461 53.88ZM133.358 42.68C133.358 38.0933 134.211 34.0666 135.918 30.6C137.678 27.1333 140.051 24.4666 143.038 22.6C146.025 20.7333 149.358 19.8 153.038 19.8C155.971 19.8 158.638 20.4133 161.038 21.64C163.491 22.8666 165.411 24.52 166.798 26.6V5.87996H180.478V65.08H166.798V58.68C165.518 60.8133 163.678 62.52 161.278 63.8C158.931 65.08 156.185 65.72 153.038 65.72C149.358 65.72 146.025 64.7866 143.038 62.92C140.051 61 137.678 58.3066 135.918 54.84C134.211 51.32 133.358 47.2666 133.358 42.68ZM166.798 42.76C166.798 39.3466 165.838 36.6533 163.918 34.68C162.051 32.7066 159.758 31.72 157.038 31.72C154.318 31.72 151.998 32.7066 150.078 34.68C148.211 36.6 147.278 39.2666 147.278 42.68C147.278 46.0933 148.211 48.8133 150.078 50.84C151.998 52.8133 154.318 53.8 157.038 53.8C159.758 53.8 162.051 52.8133 163.918 50.84C165.838 48.8666 166.798 46.1733 166.798 42.76ZM234.455 20.44V65.08H220.775V59C219.388 60.9733 217.495 62.5733 215.095 63.8C212.748 64.9733 210.135 65.56 207.255 65.56C203.842 65.56 200.828 64.8133 198.215 63.32C195.602 61.7733 193.575 59.56 192.135 56.68C190.695 53.8 189.975 50.4133 189.975 46.52V20.44H203.575V44.68C203.575 47.6666 204.348 49.9866 205.895 51.64C207.442 53.2933 209.522 54.12 212.135 54.12C214.802 54.12 216.908 53.2933 218.455 51.64C220.002 49.9866 220.775 47.6666 220.775 44.68V20.44H234.455ZM241.561 42.76C241.561 38.12 242.495 34.0666 244.361 30.6C246.281 27.1333 248.921 24.4666 252.281 22.6C255.695 20.7333 259.588 19.8 263.961 19.8C269.561 19.8 274.228 21.2666 277.961 24.2C281.748 27.1333 284.228 31.2666 285.401 36.6H270.841C269.615 33.1866 267.241 31.48 263.721 31.48C261.215 31.48 259.215 32.4666 257.721 34.44C256.228 36.36 255.481 39.1333 255.481 42.76C255.481 46.3866 256.228 49.1866 257.721 51.16C259.215 53.08 261.215 54.04 263.721 54.04C267.241 54.04 269.615 52.3333 270.841 48.92H285.401C284.228 54.1466 281.748 58.2533 277.961 61.24C274.175 64.2266 269.508 65.72 263.961 65.72C259.588 65.72 255.695 64.7866 252.281 62.92C248.921 61.0533 246.281 58.3866 244.361 54.92C242.495 51.4533 241.561 47.4 241.561 42.76ZM317.599 53.48V65.08H310.639C305.679 65.08 301.812 63.88 299.039 61.48C296.265 59.0266 294.879 55.0533 294.879 49.56V31.8H289.439V20.44H294.879V9.55996H308.559V20.44H317.519V31.8H308.559V49.72C308.559 51.0533 308.879 52.0133 309.519 52.6C310.159 53.1866 311.225 53.48 312.719 53.48H317.599ZM363.212 8.91995C369.132 8.91995 374.305 10.0933 378.732 12.44C383.159 14.7866 386.572 18.0933 388.972 22.36C391.425 26.5733 392.652 31.4533 392.652 37C392.652 42.4933 391.425 47.3733 388.972 51.64C386.572 55.9066 383.132 59.2133 378.652 61.56C374.225 63.9066 369.079 65.08 363.212 65.08H342.172V8.91995H363.212ZM362.332 53.24C367.505 53.24 371.532 51.8266 374.412 49C377.292 46.1733 378.732 42.1733 378.732 37C378.732 31.8266 377.292 27.8 374.412 24.92C371.532 22.04 367.505 20.6 362.332 20.6H355.852V53.24H362.332ZM442.377 42.04C442.377 43.32 442.297 44.6533 442.137 46.04H411.177C411.39 48.8133 412.27 50.9466 413.817 52.44C415.417 53.88 417.364 54.6 419.657 54.6C423.07 54.6 425.444 53.16 426.777 50.28H441.337C440.59 53.2133 439.23 55.8533 437.257 58.2C435.337 60.5466 432.91 62.3866 429.977 63.72C427.044 65.0533 423.764 65.72 420.137 65.72C415.764 65.72 411.87 64.7866 408.457 62.92C405.044 61.0533 402.377 58.3866 400.457 54.92C398.537 51.4533 397.577 47.4 397.577 42.76C397.577 38.12 398.51 34.0666 400.377 30.6C402.297 27.1333 404.964 24.4666 408.377 22.6C411.79 20.7333 415.71 19.8 420.137 19.8C424.457 19.8 428.297 20.7066 431.657 22.52C435.017 24.3333 437.63 26.92 439.497 30.28C441.417 33.64 442.377 37.56 442.377 42.04ZM428.377 38.44C428.377 36.0933 427.577 34.2266 425.977 32.84C424.377 31.4533 422.377 30.76 419.977 30.76C417.684 30.76 415.737 31.4266 414.137 32.76C412.59 34.0933 411.63 35.9866 411.257 38.44H428.377ZM474.474 53.48V65.08H467.514C462.554 65.08 458.687 63.88 455.914 61.48C453.14 59.0266 451.754 55.0533 451.754 49.56V31.8H446.314V20.44H451.754V9.55996H465.434V20.44H474.394V31.8H465.434V49.72C465.434 51.0533 465.754 52.0133 466.394 52.6C467.034 53.1866 468.1 53.48 469.594 53.48H474.474ZM479.374 42.68C479.374 38.0933 480.227 34.0666 481.934 30.6C483.694 27.1333 486.067 24.4666 489.054 22.6C492.04 20.7333 495.374 19.8 499.054 19.8C502.2 19.8 504.947 20.44 507.294 21.72C509.694 23 511.534 24.68 512.814 26.76V20.44H526.494V65.08H512.814V58.76C511.48 60.84 509.614 62.52 507.214 63.8C504.867 65.08 502.12 65.72 498.974 65.72C495.347 65.72 492.04 64.7866 489.054 62.92C486.067 61 483.694 58.3066 481.934 54.84C480.227 51.32 479.374 47.2666 479.374 42.68ZM512.814 42.76C512.814 39.3466 511.854 36.6533 509.934 34.68C508.067 32.7066 505.774 31.72 503.054 31.72C500.334 31.72 498.014 32.7066 496.094 34.68C494.227 36.6 493.294 39.2666 493.294 42.68C493.294 46.0933 494.227 48.8133 496.094 50.84C498.014 52.8133 500.334 53.8 503.054 53.8C505.774 53.8 508.067 52.8133 509.934 50.84C511.854 48.8666 512.814 46.1733 512.814 42.76ZM543.271 15.8C540.871 15.8 538.897 15.1066 537.351 13.72C535.857 12.28 535.111 10.52 535.111 8.43996C535.111 6.30662 535.857 4.54662 537.351 3.15995C538.897 1.71995 540.871 0.999951 543.271 0.999951C545.617 0.999951 547.537 1.71995 549.031 3.15995C550.577 4.54662 551.351 6.30662 551.351 8.43996C551.351 10.52 550.577 12.28 549.031 13.72C547.537 15.1066 545.617 15.8 543.271 15.8ZM550.071 20.44V65.08H536.391V20.44H550.071ZM573.664 5.87996V65.08H559.984V5.87996H573.664ZM601.738 65.72C597.845 65.72 594.378 65.0533 591.338 63.72C588.298 62.3866 585.898 60.5733 584.138 58.28C582.378 55.9333 581.391 53.32 581.178 50.44H594.698C594.858 51.9866 595.578 53.24 596.858 54.2C598.138 55.16 599.711 55.64 601.578 55.64C603.285 55.64 604.591 55.32 605.498 54.68C606.458 53.9866 606.938 53.1066 606.938 52.04C606.938 50.76 606.271 49.8266 604.938 49.24C603.605 48.6 601.445 47.9066 598.458 47.16C595.258 46.4133 592.591 45.64 590.458 44.84C588.325 43.9866 586.485 42.68 584.938 40.92C583.391 39.1066 582.618 36.68 582.618 33.64C582.618 31.08 583.311 28.76 584.698 26.68C586.138 24.5466 588.218 22.8666 590.938 21.64C593.711 20.4133 596.991 19.8 600.778 19.8C606.378 19.8 610.778 21.1866 613.978 23.96C617.231 26.7333 619.098 30.4133 619.578 35H606.938C606.725 33.4533 606.031 32.2266 604.858 31.32C603.738 30.4133 602.245 29.96 600.378 29.96C598.778 29.96 597.551 30.28 596.698 30.92C595.845 31.5066 595.418 32.3333 595.418 33.4C595.418 34.68 596.085 35.64 597.418 36.28C598.805 36.92 600.938 37.56 603.818 38.2C607.125 39.0533 609.818 39.9066 611.898 40.76C613.978 41.56 615.791 42.8933 617.338 44.76C618.938 46.5733 619.765 49.0266 619.818 52.12C619.818 54.7333 619.071 57.08 617.578 59.16C616.138 61.1866 614.031 62.7866 611.258 63.96C608.538 65.1333 605.365 65.72 601.738 65.72Z"/>
</mask>
<path d="M41.56 35.96L42.4325 36.4486L42.4366 36.4412L41.56 35.96ZM34.68 42.44L34.2086 41.558V41.558L34.68 42.44ZM14.68 44.92V43.92H13.68V44.92H14.68ZM14.68 65.08V66.08H15.68V65.08H14.68ZM0.999978 65.08H-2.19345e-05V66.08H0.999978V65.08ZM0.999978 8.91995V7.91995H-2.19345e-05V8.91995H0.999978ZM34.52 11.24L34.9672 10.3455V10.3455L34.52 11.24ZM14.68 19.96V18.96H13.68V19.96H14.68ZM14.68 34.04H13.68V35.04H14.68V34.04ZM43.8 27H42.8C42.8 30.0935 42.0918 32.9134 40.6834 35.4787L41.56 35.96L42.4366 36.4412C44.0148 33.5665 44.8 30.4131 44.8 27H43.8ZM41.56 35.96L40.6875 35.4714C39.3007 37.9477 37.1589 39.9812 34.2086 41.558L34.68 42.44L35.1514 43.3219C38.3877 41.5921 40.8326 39.3055 42.4325 36.4486L41.56 35.96ZM34.68 42.44L34.2086 41.558C31.2981 43.1137 27.6311 43.92 23.16 43.92V44.92V45.92C27.8622 45.92 31.8752 45.0729 35.1514 43.3219L34.68 42.44ZM23.16 44.92V43.92H14.68V44.92V45.92H23.16V44.92ZM14.68 44.92H13.68V65.08H14.68H15.68V44.92H14.68ZM14.68 65.08V64.08H0.999978V65.08V66.08H14.68V65.08ZM0.999978 65.08H1.99998V8.91995H0.999978H-2.19345e-05V65.08H0.999978ZM0.999978 8.91995V9.91995H23.16V8.91995V7.91995H0.999978V8.91995ZM23.16 8.91995V9.91995C27.529 9.91995 31.1531 10.6745 34.0728 12.1344L34.52 11.24L34.9672 10.3455C31.7002 8.71203 27.7509 7.91995 23.16 7.91995V8.91995ZM34.52 11.24L34.0728 12.1344C37.0083 13.6021 39.1722 15.6045 40.6107 18.1343L41.48 17.64L42.3493 17.1456C40.6945 14.2355 38.2183 11.9711 34.9672 10.3455L34.52 11.24ZM41.48 17.64L40.6107 18.1343C42.0614 20.6855 42.8 23.6312 42.8 27H43.8H44.8C44.8 23.3287 43.9919 20.0344 42.3493 17.1456L41.48 17.64ZM22.12 34.04V35.04C24.8703 35.04 27.1137 34.396 28.6519 32.9219L27.96 32.2L27.2681 31.478C26.2463 32.4572 24.5963 33.04 22.12 33.04V34.04ZM27.96 32.2L28.6519 32.9219C30.1776 31.4598 30.88 29.4364 30.88 27H29.88H28.88C28.88 29.0435 28.3024 30.4868 27.2681 31.478L27.96 32.2ZM29.88 27H30.88C30.88 24.5635 30.1776 22.5401 28.6519 21.078L27.96 21.8L27.2681 22.5219C28.3024 23.5131 28.88 24.9564 28.88 27H29.88ZM27.96 21.8L28.6519 21.078C27.1137 19.6039 24.8703 18.96 22.12 18.96V19.96V20.96C24.5963 20.96 26.2463 21.5427 27.2681 22.5219L27.96 21.8ZM22.12 19.96V18.96H14.68V19.96V20.96H22.12V19.96ZM14.68 19.96H13.68V34.04H14.68H15.68V19.96H14.68ZM14.68 34.04V35.04H22.12V34.04V33.04H14.68V34.04ZM64.6019 27.88H63.6019V31.2439L65.4395 28.4262L64.6019 27.88ZM70.6019 22.12L71.1021 22.9858L71.1093 22.9817L71.1163 22.9774L70.6019 22.12ZM78.6019 19.96H79.6019V18.96H78.6019V19.96ZM78.6019 34.44V35.44H79.6019V34.44H78.6019ZM67.1619 36.68L67.8067 37.4442L67.8136 37.4384L67.8204 37.4325L67.1619 36.68ZM64.6019 65.08V66.08H65.6019V65.08H64.6019ZM50.9219 65.08H49.9219V66.08H50.9219V65.08ZM50.9219 20.44V19.44H49.9219V20.44H50.9219ZM64.6019 20.44H65.6019V19.44H64.6019V20.44ZM64.6019 27.88L65.4395 28.4262C66.9587 26.0968 68.8458 24.2895 71.1021 22.9858L70.6019 22.12L70.1016 21.2541C67.5579 22.7238 65.445 24.7565 63.7642 27.3337L64.6019 27.88ZM70.6019 22.12L71.1163 22.9774C73.3533 21.6353 75.8407 20.96 78.6019 20.96V19.96V18.96C75.4964 18.96 72.6504 19.7246 70.0874 21.2625L70.6019 22.12ZM78.6019 19.96H77.6019V34.44H78.6019H79.6019V19.96H78.6019ZM78.6019 34.44V33.44H74.8419V34.44V35.44H78.6019V34.44ZM74.8419 34.44V33.44C71.3047 33.44 68.4651 34.2108 66.5033 35.9274L67.1619 36.68L67.8204 37.4325C69.2719 36.1624 71.5523 35.44 74.8419 35.44V34.44ZM67.1619 36.68L66.517 35.9157C64.4737 37.6397 63.6019 40.5717 63.6019 44.36H64.6019H65.6019C65.6019 40.7882 66.4367 38.6002 67.8067 37.4442L67.1619 36.68ZM64.6019 44.36H63.6019V65.08H64.6019H65.6019V44.36H64.6019ZM64.6019 65.08V64.08H50.9219V65.08V66.08H64.6019V65.08ZM50.9219 65.08H51.9219V20.44H50.9219H49.9219V65.08H50.9219ZM50.9219 20.44V21.44H64.6019V20.44V19.44H50.9219V20.44ZM64.6019 20.44H63.6019V27.88H64.6019H65.6019V20.44H64.6019ZM93.6206 62.92L93.1465 63.8004L93.1521 63.8034L93.6206 62.92ZM85.3806 54.92L84.5115 55.4147L84.5173 55.4247L85.3806 54.92ZM85.4606 30.68L86.3239 31.1847L86.3272 31.1789L85.4606 30.68ZM93.7806 22.6L94.2491 23.4834V23.4834L93.7806 22.6ZM117.461 22.6L116.992 23.4834V23.4834L117.461 22.6ZM125.781 30.68L124.914 31.1789L124.917 31.1847L125.781 30.68ZM125.701 54.92L124.84 54.4112L124.837 54.4153L125.701 54.92ZM117.301 62.92L116.838 62.0336L116.832 62.0365L117.301 62.92ZM112.101 51L111.384 50.3029L111.379 50.3081L111.374 50.3133L112.101 51ZM112.181 34.52L111.443 35.1957L111.448 35.2012L111.454 35.2066L112.181 34.52ZM98.9806 34.52L99.7083 35.206L99.7178 35.1957L98.9806 34.52ZM98.9006 51L98.1532 51.6643L98.1583 51.67L98.1635 51.6757L98.9006 51ZM105.461 65.72V64.72C101.234 64.72 97.4511 63.8194 94.0891 62.0365L93.6206 62.92L93.1521 63.8034C96.8301 65.7539 100.94 66.72 105.461 66.72V65.72ZM93.6206 62.92L94.0947 62.0395C90.7932 60.2617 88.1798 57.7266 86.2439 54.4153L85.3806 54.92L84.5173 55.4247C86.6348 59.0466 89.5147 61.8448 93.1465 63.8004L93.6206 62.92ZM85.3806 54.92L86.2497 54.4253C84.3753 51.1324 83.4206 47.2551 83.4206 42.76H82.4206H81.4206C81.4206 47.5448 82.4393 51.7742 84.5115 55.4147L85.3806 54.92ZM82.4206 42.76H83.4206C83.4206 38.325 84.3989 34.4775 86.3239 31.1847L85.4606 30.68L84.5973 30.1753C82.469 33.8158 81.4206 38.0216 81.4206 42.76H82.4206ZM85.4606 30.68L86.3272 31.1789C88.2619 27.8186 90.8987 25.2601 94.2491 23.4834L93.7806 22.6L93.3121 21.7165C89.6225 23.6731 86.7126 26.5013 84.594 30.181L85.4606 30.68ZM93.7806 22.6L94.2491 23.4834C97.6111 21.7006 101.394 20.8 105.621 20.8V19.8V18.8C101.1 18.8 96.9901 19.766 93.3121 21.7165L93.7806 22.6ZM105.621 19.8V20.8C109.847 20.8 113.63 21.7006 116.992 23.4834L117.461 22.6L117.929 21.7165C114.251 19.766 110.141 18.8 105.621 18.8V19.8ZM117.461 22.6L116.992 23.4834C120.342 25.2601 122.979 27.8186 124.914 31.1789L125.781 30.68L126.647 30.181C124.529 26.5013 121.619 23.6731 117.929 21.7165L117.461 22.6ZM125.781 30.68L124.917 31.1847C126.842 34.4775 127.821 38.325 127.821 42.76H128.821H129.821C129.821 38.0216 128.772 33.8158 126.644 30.1753L125.781 30.68ZM128.821 42.76H127.821C127.821 47.19 126.818 51.0634 124.84 54.4112L125.701 54.92L126.562 55.4287C128.743 51.7365 129.821 47.5033 129.821 42.76H128.821ZM125.701 54.92L124.837 54.4153C122.906 57.7189 120.245 60.2536 116.838 62.0336L117.301 62.92L117.764 63.8063C121.503 61.8529 124.442 59.0543 126.564 55.4247L125.701 54.92ZM117.301 62.92L116.832 62.0365C113.47 63.8194 109.687 64.72 105.461 64.72V65.72V66.72C109.981 66.72 114.091 65.7539 117.769 63.8034L117.301 62.92ZM105.461 53.88V54.88C108.352 54.88 110.828 53.8042 112.828 51.6866L112.101 51L111.374 50.3133C109.747 52.0357 107.796 52.88 105.461 52.88V53.88ZM112.101 51L112.818 51.697C114.92 49.5348 115.901 46.5041 115.901 42.76H114.901H113.901C113.901 46.1625 113.015 48.6252 111.384 50.3029L112.101 51ZM114.901 42.76H115.901C115.901 39.0231 114.951 35.9964 112.908 33.8333L112.181 34.52L111.454 35.2066C113.037 36.8835 113.901 39.3501 113.901 42.76H114.901ZM112.181 34.52L112.918 33.8442C110.968 31.7168 108.513 30.64 105.621 30.64V31.64V32.64C107.955 32.64 109.874 33.4831 111.443 35.1957L112.181 34.52ZM105.621 31.64V30.64C102.681 30.64 100.198 31.7121 98.2434 33.8442L98.9806 34.52L99.7178 35.1957C101.283 33.4878 103.227 32.64 105.621 32.64V31.64ZM98.9806 34.52L98.253 33.8339C96.257 35.951 95.3406 38.984 95.3406 42.76H96.3406H97.3406C97.3406 39.2826 98.1842 36.8223 99.7082 35.206L98.9806 34.52ZM96.3406 42.76H95.3406C95.3406 46.4825 96.2298 49.5005 98.1532 51.6643L98.9006 51L99.648 50.3356C98.1581 48.6594 97.3406 46.1841 97.3406 42.76H96.3406ZM98.9006 51L98.1635 51.6757C100.114 53.8031 102.568 54.88 105.461 54.88V53.88V52.88C103.127 52.88 101.208 52.0368 99.6378 50.3242L98.9006 51ZM135.918 30.6L135.026 30.1472L135.021 30.1583L135.918 30.6ZM143.038 22.6L143.568 23.448V23.448L143.038 22.6ZM161.038 21.64L160.583 22.5304L160.591 22.5344L161.038 21.64ZM166.798 26.6L165.966 27.1547L167.798 29.9027V26.6H166.798ZM166.798 5.87996V4.87996H165.798V5.87996H166.798ZM180.478 5.87996H181.478V4.87996H180.478V5.87996ZM180.478 65.08V66.08H181.478V65.08H180.478ZM166.798 65.08H165.798V66.08H166.798V65.08ZM166.798 58.68H167.798V55.0696L165.941 58.1655L166.798 58.68ZM161.278 63.8L160.807 62.9176L160.799 62.9221L161.278 63.8ZM143.038 62.92L142.497 63.7612L142.508 63.768L143.038 62.92ZM135.918 54.84L135.018 55.2762L135.022 55.2845L135.026 55.2926L135.918 54.84ZM163.918 34.68L163.192 35.3672L163.201 35.3773L163.918 34.68ZM150.078 34.68L149.361 33.9826L149.361 33.9829L150.078 34.68ZM150.078 50.84L149.343 51.5174L149.352 51.5275L149.361 51.5373L150.078 50.84ZM163.918 50.84L163.201 50.1425L163.192 50.1528L163.918 50.84ZM133.358 42.68H134.358C134.358 38.218 135.188 34.3475 136.815 31.0416L135.918 30.6L135.021 30.1583C133.235 33.7858 132.358 37.9685 132.358 42.68H133.358ZM135.918 30.6L136.81 31.0526C138.496 27.7308 140.751 25.2084 143.568 23.448L143.038 22.6L142.508 21.752C139.351 23.7249 136.86 26.5357 135.026 30.1473L135.918 30.6ZM143.038 22.6L143.568 23.448C146.389 21.6852 149.537 20.8 153.038 20.8V19.8V18.8C149.18 18.8 145.661 19.7814 142.508 21.752L143.038 22.6ZM153.038 19.8V20.8C155.827 20.8 158.336 21.382 160.583 22.5304L161.038 21.64L161.493 20.7495C158.94 19.4446 156.115 18.8 153.038 18.8V19.8ZM161.038 21.64L160.591 22.5344C162.904 23.691 164.685 25.2333 165.966 27.1547L166.798 26.6L167.63 26.0453C166.138 23.8066 164.079 22.0422 161.485 20.7455L161.038 21.64ZM166.798 26.6H167.798V5.87996H166.798H165.798V26.6H166.798ZM166.798 5.87996V6.87996H180.478V5.87996V4.87996H166.798V5.87996ZM180.478 5.87996H179.478V65.08H180.478H181.478V5.87996H180.478ZM180.478 65.08V64.08H166.798V65.08V66.08H180.478V65.08ZM166.798 65.08H167.798V58.68H166.798H165.798V65.08H166.798ZM166.798 58.68L165.941 58.1655C164.762 60.1291 163.063 61.7147 160.808 62.9176L161.278 63.8L161.749 64.6823C164.293 63.3252 166.274 61.4975 167.656 59.1945L166.798 58.68ZM161.278 63.8L160.799 62.9221C158.624 64.1088 156.047 64.72 153.038 64.72V65.72V66.72C156.322 66.72 159.239 66.0511 161.757 64.6778L161.278 63.8ZM153.038 65.72V64.72C149.537 64.72 146.389 63.8347 143.568 62.072L143.038 62.92L142.508 63.768C145.661 65.7385 149.18 66.72 153.038 66.72V65.72ZM143.038 62.92L143.579 62.0788C140.756 60.2638 138.497 57.7111 136.81 54.3873L135.918 54.84L135.026 55.2926C136.859 58.9022 139.347 61.7361 142.497 63.7611L143.038 62.92ZM135.918 54.84L136.818 54.4037C135.188 51.0412 134.358 47.1414 134.358 42.68H133.358H132.358C132.358 47.3918 133.235 51.5987 135.018 55.2762L135.918 54.84ZM166.798 42.76H167.798C167.798 39.152 166.778 36.185 164.635 33.9826L163.918 34.68L163.201 35.3773C164.898 37.1215 165.798 39.5412 165.798 42.76H166.798ZM163.918 34.68L164.645 33.9928C162.589 31.8194 160.033 30.72 157.038 30.72V31.72V32.72C159.484 32.72 161.514 33.5938 163.192 35.3672L163.918 34.68ZM157.038 31.72V30.72C154.044 30.72 151.467 31.8184 149.361 33.9826L150.078 34.68L150.795 35.3773C152.529 33.5948 154.592 32.72 157.038 32.72V31.72ZM150.078 34.68L149.361 33.9829C147.267 36.137 146.278 39.081 146.278 42.68H147.278H148.278C148.278 39.4523 149.156 37.0629 150.795 35.377L150.078 34.68ZM147.278 42.68H146.278C146.278 46.2816 147.268 49.2647 149.343 51.5174L150.078 50.84L150.814 50.1625C149.155 48.3619 148.278 45.905 148.278 42.68H147.278ZM150.078 50.84L149.361 51.5373C151.467 53.7015 154.044 54.8 157.038 54.8V53.8V52.8C154.592 52.8 152.529 51.9251 150.795 50.1426L150.078 50.84ZM157.038 53.8V54.8C160.033 54.8 162.589 53.7005 164.645 51.5272L163.918 50.84L163.192 50.1528C161.514 51.9261 159.484 52.8 157.038 52.8V53.8ZM163.918 50.84L164.635 51.5373C166.778 49.3349 167.798 46.3679 167.798 42.76H166.798H165.798C165.798 45.9787 164.898 48.3984 163.201 50.1426L163.918 50.84ZM234.455 20.44H235.455V19.44H234.455V20.44ZM234.455 65.08V66.08H235.455V65.08H234.455ZM220.775 65.08H219.775V66.08H220.775V65.08ZM220.775 59H221.775V55.8376L219.957 58.425L220.775 59ZM215.095 63.8L215.542 64.6944L215.55 64.6904L215.095 63.8ZM198.215 63.32L197.706 64.1805L197.712 64.1844L197.719 64.1882L198.215 63.32ZM192.135 56.68L191.241 57.1272V57.1272L192.135 56.68ZM189.975 20.44V19.44H188.975V20.44H189.975ZM203.575 20.44H204.575V19.44H203.575V20.44ZM205.895 51.64L205.165 52.3231V52.3231L205.895 51.64ZM220.775 20.44V19.44H219.775V20.44H220.775ZM234.455 20.44H233.455V65.08H234.455H235.455V20.44H234.455ZM234.455 65.08V64.08H220.775V65.08V66.08H234.455V65.08ZM220.775 65.08H221.775V59H220.775H219.775V65.08H220.775ZM220.775 59L219.957 58.425C218.674 60.2502 216.912 61.7481 214.64 62.9095L215.095 63.8L215.55 64.6904C218.078 63.3985 220.102 61.6964 221.593 59.5749L220.775 59ZM215.095 63.8L214.648 62.9055C212.453 64.0029 209.995 64.56 207.255 64.56V65.56V66.56C210.275 66.56 213.044 65.9437 215.542 64.6944L215.095 63.8ZM207.255 65.56V64.56C203.992 64.56 201.154 63.8476 198.711 62.4517L198.215 63.32L197.719 64.1882C200.503 65.7789 203.691 66.56 207.255 66.56V65.56ZM198.215 63.32L198.724 62.4594C196.287 61.0166 194.389 58.9517 193.029 56.2327L192.135 56.68L191.241 57.1272C192.761 60.1682 194.917 62.5299 197.706 64.1805L198.215 63.32ZM192.135 56.68L193.029 56.2327C191.672 53.5177 190.975 50.2901 190.975 46.52H189.975H188.975C188.975 50.5365 189.718 54.0822 191.241 57.1272L192.135 56.68ZM189.975 46.52H190.975V20.44H189.975H188.975V46.52H189.975ZM189.975 20.44V21.44H203.575V20.44V19.44H189.975V20.44ZM203.575 20.44H202.575V44.68H203.575H204.575V20.44H203.575ZM203.575 44.68H202.575C202.575 47.8372 203.395 50.4316 205.165 52.3231L205.895 51.64L206.625 50.9568C205.301 49.5416 204.575 47.4961 204.575 44.68H203.575ZM205.895 51.64L205.165 52.3231C206.93 54.2104 209.292 55.12 212.135 55.12V54.12V53.12C209.752 53.12 207.953 52.3762 206.625 50.9568L205.895 51.64ZM212.135 54.12V55.12C215.025 55.12 217.416 54.2146 219.185 52.3231L218.455 51.64L217.725 50.9568C216.401 52.372 214.578 53.12 212.135 53.12V54.12ZM218.455 51.64L219.185 52.3231C220.955 50.4316 221.775 47.8372 221.775 44.68H220.775H219.775C219.775 47.4961 219.049 49.5416 217.725 50.9568L218.455 51.64ZM220.775 44.68H221.775V20.44H220.775H219.775V44.68H220.775ZM220.775 20.44V21.44H234.455V20.44V19.44H220.775V20.44ZM244.361 30.6L243.486 30.1154L243.481 30.1259L244.361 30.6ZM252.281 22.6L251.801 21.7226L251.796 21.7258L252.281 22.6ZM277.961 24.2L277.343 24.9863L277.349 24.9905L277.961 24.2ZM285.401 36.6V37.6H286.645L286.378 36.3851L285.401 36.6ZM270.841 36.6L269.9 36.9382L270.138 37.6H270.841V36.6ZM257.721 34.44L258.511 35.0539L258.519 35.0434L257.721 34.44ZM257.721 51.16L256.924 51.7635L256.932 51.7739L257.721 51.16ZM270.841 48.92V47.92H270.138L269.9 48.5818L270.841 48.92ZM285.401 48.92L286.377 49.139L286.651 47.92H285.401V48.92ZM277.961 61.24L277.342 60.4548V60.4548L277.961 61.24ZM252.281 62.92L251.796 63.7941L251.801 63.7973L252.281 62.92ZM244.361 54.92L243.481 55.3941L243.486 55.4045L244.361 54.92ZM241.561 42.76H242.561C242.561 38.2559 243.466 34.371 245.242 31.0741L244.361 30.6L243.481 30.1259C241.523 33.7622 240.561 37.984 240.561 42.76H241.561ZM244.361 30.6L245.236 31.0845C247.068 27.7762 249.576 25.247 252.767 23.4741L252.281 22.6L251.796 21.7258C248.267 23.6863 245.494 26.4904 243.486 30.1155L244.361 30.6ZM252.281 22.6L252.761 23.4773C256.01 21.7007 259.734 20.8 263.961 20.8V19.8V18.8C259.441 18.8 255.379 19.7659 251.801 21.7226L252.281 22.6ZM263.961 19.8V20.8C269.379 20.8 273.817 22.2152 277.343 24.9863L277.961 24.2L278.579 23.4136C274.639 20.3181 269.743 18.8 263.961 18.8V19.8ZM277.961 24.2L277.349 24.9905C280.925 27.7606 283.294 31.6762 284.425 36.8148L285.401 36.6L286.378 36.3851C285.162 30.8571 282.571 26.506 278.574 23.4094L277.961 24.2ZM285.401 36.6V35.6H270.841V36.6V37.6H285.401V36.6ZM270.841 36.6L271.782 36.2618C271.117 34.4109 270.112 32.9453 268.725 31.9481C267.336 30.9492 265.647 30.48 263.721 30.48V31.48V32.48C265.315 32.48 266.573 32.8641 267.557 33.5718C268.544 34.2813 269.339 35.3757 269.9 36.9382L270.841 36.6ZM263.721 31.48V30.48C260.906 30.48 258.609 31.6096 256.924 33.8365L257.721 34.44L258.519 35.0434C259.82 33.3236 261.523 32.48 263.721 32.48V31.48ZM257.721 34.44L256.932 33.826C255.249 35.9892 254.481 39.0154 254.481 42.76H255.481H256.481C256.481 39.2512 257.206 36.7307 258.511 35.0539L257.721 34.44ZM255.481 42.76H254.481C254.481 46.5071 255.25 49.5521 256.924 51.7634L257.721 51.16L258.519 50.5565C257.205 48.8212 256.481 46.2661 256.481 42.76H255.481ZM257.721 51.16L256.932 51.7739C258.621 53.946 260.917 55.04 263.721 55.04V54.04V53.04C261.512 53.04 259.808 52.2139 258.511 50.546L257.721 51.16ZM263.721 54.04V55.04C265.647 55.04 267.336 54.5708 268.725 53.5718C270.112 52.5747 271.117 51.109 271.782 49.2582L270.841 48.92L269.9 48.5818C269.339 50.1442 268.544 51.2386 267.557 51.9481C266.573 52.6558 265.315 53.04 263.721 53.04V54.04ZM270.841 48.92V49.92H285.401V48.92V47.92H270.841V48.92ZM285.401 48.92L284.426 48.7009C283.297 53.7299 280.928 57.6262 277.342 60.4548L277.961 61.24L278.581 62.0251C282.568 58.8804 285.159 54.5633 286.377 49.139L285.401 48.92ZM277.961 61.24L277.342 60.4548C273.758 63.2819 269.319 64.72 263.961 64.72V65.72V66.72C269.697 66.72 274.592 65.1714 278.581 62.0251L277.961 61.24ZM263.961 65.72V64.72C259.734 64.72 256.01 63.8192 252.761 62.0426L252.281 62.92L251.801 63.7973C255.379 65.754 259.441 66.72 263.961 66.72V65.72ZM252.281 62.92L252.767 62.0458C249.576 60.273 247.068 57.7437 245.236 54.4355L244.361 54.92L243.486 55.4045C245.494 59.0295 248.267 61.8336 251.796 63.7941L252.281 62.92ZM244.361 54.92L245.242 54.4459C243.466 51.1489 242.561 47.264 242.561 42.76H241.561H240.561C240.561 47.5359 241.523 51.7577 243.481 55.3941L244.361 54.92ZM317.599 53.48H318.599V52.48H317.599V53.48ZM317.599 65.08V66.08H318.599V65.08H317.599ZM299.039 61.48L298.376 62.229L298.384 62.2361L299.039 61.48ZM294.879 31.8H295.879V30.8H294.879V31.8ZM289.439 31.8H288.439V32.8H289.439V31.8ZM289.439 20.44V19.44H288.439V20.44H289.439ZM294.879 20.44V21.44H295.879V20.44H294.879ZM294.879 9.55996V8.55996H293.879V9.55996H294.879ZM308.559 9.55996H309.559V8.55996H308.559V9.55996ZM308.559 20.44H307.559V21.44H308.559V20.44ZM317.519 20.44H318.519V19.44H317.519V20.44ZM317.519 31.8V32.8H318.519V31.8H317.519ZM308.559 31.8V30.8H307.559V31.8H308.559ZM309.519 52.6L308.843 53.3371V53.3371L309.519 52.6ZM317.599 53.48H316.599V65.08H317.599H318.599V53.48H317.599ZM317.599 65.08V64.08H310.639V65.08V66.08H317.599V65.08ZM310.639 65.08V64.08C305.834 64.08 302.229 62.9185 299.693 60.7238L299.039 61.48L298.384 62.2361C301.395 64.8414 305.524 66.08 310.639 66.08V65.08ZM299.039 61.48L299.701 60.731C297.229 58.5439 295.879 54.907 295.879 49.56H294.879H293.879C293.879 55.1996 295.302 59.5094 298.376 62.229L299.039 61.48ZM294.879 49.56H295.879V31.8H294.879H293.879V49.56H294.879ZM294.879 31.8V30.8H289.439V31.8V32.8H294.879V31.8ZM289.439 31.8H290.439V20.44H289.439H288.439V31.8H289.439ZM289.439 20.44V21.44H294.879V20.44V19.44H289.439V20.44ZM294.879 20.44H295.879V9.55996H294.879H293.879V20.44H294.879ZM294.879 9.55996V10.56H308.559V9.55996V8.55996H294.879V9.55996ZM308.559 9.55996H307.559V20.44H308.559H309.559V9.55996H308.559ZM308.559 20.44V21.44H317.519V20.44V19.44H308.559V20.44ZM317.519 20.44H316.519V31.8H317.519H318.519V20.44H317.519ZM317.519 31.8V30.8H308.559V31.8V32.8H317.519V31.8ZM308.559 31.8H307.559V49.72H308.559H309.559V31.8H308.559ZM308.559 49.72H307.559C307.559 51.1846 307.907 52.4795 308.843 53.3371L309.519 52.6L310.194 51.8628C309.85 51.547 309.559 50.922 309.559 49.72H308.559ZM309.519 52.6L308.843 53.3371C309.761 54.1788 311.141 54.48 312.719 54.48V53.48V52.48C311.31 52.48 310.556 52.1945 310.194 51.8628L309.519 52.6ZM312.719 53.48V54.48H317.599V53.48V52.48H312.719V53.48ZM378.732 12.44L379.2 11.5564V11.5564L378.732 12.44ZM388.972 22.36L388.1 22.8502L388.104 22.8567L388.108 22.8631L388.972 22.36ZM388.972 51.64L388.105 51.1415L388.1 51.1497L388.972 51.64ZM378.652 61.56L378.188 60.6741L378.183 60.6764L378.652 61.56ZM342.172 65.08H341.172V66.08H342.172V65.08ZM342.172 8.91995V7.91995H341.172V8.91995H342.172ZM355.852 20.6V19.6H354.852V20.6H355.852ZM355.852 53.24H354.852V54.24H355.852V53.24ZM363.212 8.91995V9.91995C368.998 9.91995 374.005 11.0661 378.263 13.3235L378.732 12.44L379.2 11.5564C374.605 9.12051 369.266 7.91995 363.212 7.91995V8.91995ZM378.732 12.44L378.263 13.3235C382.525 15.5826 385.797 18.7547 388.1 22.8502L388.972 22.36L389.843 21.8697C387.347 17.4319 383.792 13.9906 379.2 11.5564L378.732 12.44ZM388.972 22.36L388.108 22.8631C390.46 26.9036 391.652 31.6053 391.652 37H392.652H393.652C393.652 31.3013 392.39 26.2429 389.836 21.8568L388.972 22.36ZM392.652 37H391.652C391.652 42.3391 390.461 47.0435 388.105 51.1415L388.972 51.64L389.839 52.1384C392.389 47.7031 393.652 42.6475 393.652 37H392.652ZM388.972 51.64L388.1 51.1497C385.798 55.2421 382.503 58.414 378.188 60.6741L378.652 61.56L379.116 62.4458C383.761 60.0126 387.345 56.5712 389.843 52.1302L388.972 51.64ZM378.652 61.56L378.183 60.6764C373.924 62.9345 368.943 64.08 363.212 64.08V65.08V66.08C369.214 66.08 374.526 64.8787 379.12 62.4435L378.652 61.56ZM363.212 65.08V64.08H342.172V65.08V66.08H363.212V65.08ZM342.172 65.08H343.172V8.91995H342.172H341.172V65.08H342.172ZM342.172 8.91995V9.91995H363.212V8.91995V7.91995H342.172V8.91995ZM362.332 53.24V54.24C367.69 54.24 371.997 52.7716 375.112 49.7136L374.412 49L373.711 48.2863C371.067 50.8817 367.32 52.24 362.332 52.24V53.24ZM374.412 49L375.112 49.7136C378.234 46.6497 379.732 42.3622 379.732 37H378.732H377.732C377.732 41.9844 376.35 45.6969 373.711 48.2863L374.412 49ZM378.732 37H379.732C379.732 31.6367 378.234 27.3276 375.119 24.2128L374.412 24.92L373.705 25.6271C376.35 28.2723 377.732 32.0166 377.732 37H378.732ZM374.412 24.92L375.119 24.2128C372.004 21.0981 367.695 19.6 362.332 19.6V20.6V21.6C367.315 21.6 371.06 22.9819 373.705 25.6271L374.412 24.92ZM362.332 20.6V19.6H355.852V20.6V21.6H362.332V20.6ZM355.852 20.6H354.852V53.24H355.852H356.852V20.6H355.852ZM355.852 53.24V54.24H362.332V53.24V52.24H355.852V53.24ZM442.137 46.04V47.04H443.028L443.13 46.1546L442.137 46.04ZM411.177 46.04V45.04H410.097L410.18 46.1167L411.177 46.04ZM413.817 52.44L413.122 53.1594L413.135 53.1715L413.148 53.1833L413.817 52.44ZM426.777 50.28V49.28H426.138L425.869 49.8598L426.777 50.28ZM441.337 50.28L442.306 50.5266L442.623 49.28H441.337V50.28ZM437.257 58.2L436.491 57.5563L436.483 57.5667L437.257 58.2ZM429.977 63.72L430.391 64.6303L429.977 63.72ZM408.457 62.92L407.977 63.7973V63.7973L408.457 62.92ZM400.457 54.92L401.332 54.4355V54.4355L400.457 54.92ZM400.377 30.6L399.502 30.1154L399.496 30.1259L400.377 30.6ZM408.377 22.6L408.857 23.4773V23.4773L408.377 22.6ZM431.657 22.52L431.182 23.4V23.4L431.657 22.52ZM439.497 30.28L438.623 30.7656L438.629 30.7761L439.497 30.28ZM428.377 38.44V39.44H429.377V38.44H428.377ZM425.977 32.84L426.632 32.0843V32.0843L425.977 32.84ZM414.137 32.76L413.497 31.9917L413.49 31.9971L413.484 32.0025L414.137 32.76ZM411.257 38.44L410.268 38.2895L410.093 39.44H411.257V38.44ZM442.377 42.04H441.377C441.377 43.2784 441.299 44.5733 441.143 45.9253L442.137 46.04L443.13 46.1546C443.294 44.7332 443.377 43.3615 443.377 42.04H442.377ZM442.137 46.04V45.04H411.177V46.04V47.04H442.137V46.04ZM411.177 46.04L410.18 46.1167C410.406 49.0605 411.353 51.451 413.122 53.1594L413.817 52.44L414.511 51.7206C413.188 50.4423 412.374 48.5661 412.174 45.9633L411.177 46.04ZM413.817 52.44L413.148 53.1833C414.944 54.7999 417.134 55.6 419.657 55.6V54.6V53.6C417.593 53.6 415.889 52.96 414.486 51.6967L413.817 52.44ZM419.657 54.6V55.6C421.505 55.6 423.14 55.2094 424.516 54.3749C425.896 53.5376 426.947 52.2938 427.684 50.7001L426.777 50.28L425.869 49.8598C425.274 51.1461 424.471 52.0623 423.478 52.665C422.48 53.2705 421.223 53.6 419.657 53.6V54.6ZM426.777 50.28V51.28H441.337V50.28V49.28H426.777V50.28ZM441.337 50.28L440.368 50.0333C439.659 52.8187 438.369 55.3234 436.491 57.5564L437.257 58.2L438.022 58.8436C440.091 56.3832 441.522 53.6079 442.306 50.5266L441.337 50.28ZM437.257 58.2L436.483 57.5667C434.666 59.7872 432.366 61.5357 429.563 62.8096L429.977 63.72L430.391 64.6303C433.455 63.2376 436.008 61.3061 438.031 58.8332L437.257 58.2ZM429.977 63.72L429.563 62.8096C426.775 64.0768 423.639 64.72 420.137 64.72V65.72V66.72C423.888 66.72 427.312 66.0297 430.391 64.6303L429.977 63.72ZM420.137 65.72V64.72C415.91 64.72 412.185 63.8192 408.937 62.0426L408.457 62.92L407.977 63.7973C411.555 65.754 415.617 66.72 420.137 66.72V65.72ZM408.457 62.92L408.937 62.0426C405.693 60.2686 403.162 57.7397 401.332 54.4355L400.457 54.92L399.582 55.4045C401.592 59.0336 404.394 61.838 407.977 63.7973L408.457 62.92ZM400.457 54.92L401.332 54.4355C399.507 51.1406 398.577 47.2596 398.577 42.76H397.577H396.577C396.577 47.5403 397.567 51.766 399.582 55.4045L400.457 54.92ZM397.577 42.76H398.577C398.577 38.2559 399.482 34.371 401.257 31.0741L400.377 30.6L399.496 30.1259C397.538 33.7622 396.577 37.984 396.577 42.76H397.577ZM400.377 30.6L401.252 31.0845C403.082 27.7803 405.613 25.2513 408.857 23.4773L408.377 22.6L407.897 21.7226C404.314 23.6819 401.512 26.4863 399.502 30.1155L400.377 30.6ZM408.377 22.6L408.857 23.4773C412.104 21.7016 415.854 20.8 420.137 20.8V19.8V18.8C415.566 18.8 411.477 19.7649 407.897 21.7226L408.377 22.6ZM420.137 19.8V20.8C424.313 20.8 427.986 21.6753 431.182 23.4L431.657 22.52L432.132 21.6399C428.608 19.738 424.601 18.8 420.137 18.8V19.8ZM431.657 22.52L431.182 23.4C434.373 25.122 436.848 27.5713 438.623 30.7656L439.497 30.28L440.371 29.7943C438.412 26.2686 435.661 23.5446 432.132 21.6399L431.657 22.52ZM439.497 30.28L438.629 30.7761C440.449 33.9626 441.377 37.7062 441.377 42.04H442.377H443.377C443.377 37.4137 442.384 33.3173 440.365 29.7838L439.497 30.28ZM428.377 38.44H429.377C429.377 35.8385 428.476 33.6828 426.632 32.0843L425.977 32.84L425.322 33.5956C426.677 34.7704 427.377 36.348 427.377 38.44H428.377ZM425.977 32.84L426.632 32.0843C424.826 30.519 422.583 29.76 419.977 29.76V30.76V31.76C422.171 31.76 423.928 32.3876 425.322 33.5956L425.977 32.84ZM419.977 30.76V29.76C417.475 29.76 415.295 30.4932 413.497 31.9917L414.137 32.76L414.777 33.5282C416.179 32.36 417.892 31.76 419.977 31.76V30.76ZM414.137 32.76L413.484 32.0025C411.72 33.5234 410.669 35.6532 410.268 38.2895L411.257 38.44L412.245 38.5904C412.591 36.32 413.461 34.6632 414.79 33.5174L414.137 32.76ZM411.257 38.44V39.44H428.377V38.44V37.44H411.257V38.44ZM474.474 53.48H475.474V52.48H474.474V53.48ZM474.474 65.08V66.08H475.474V65.08H474.474ZM455.914 61.48L455.251 62.229L455.259 62.2361L455.914 61.48ZM451.754 31.8H452.754V30.8H451.754V31.8ZM446.314 31.8H445.314V32.8H446.314V31.8ZM446.314 20.44V19.44H445.314V20.44H446.314ZM451.754 20.44V21.44H452.754V20.44H451.754ZM451.754 9.55996V8.55996H450.754V9.55996H451.754ZM465.434 9.55996H466.434V8.55996H465.434V9.55996ZM465.434 20.44H464.434V21.44H465.434V20.44ZM474.394 20.44H475.394V19.44H474.394V20.44ZM474.394 31.8V32.8H475.394V31.8H474.394ZM465.434 31.8V30.8H464.434V31.8H465.434ZM466.394 52.6L465.718 53.3371V53.3371L466.394 52.6ZM474.474 53.48H473.474V65.08H474.474H475.474V53.48H474.474ZM474.474 65.08V64.08H467.514V65.08V66.08H474.474V65.08ZM467.514 65.08V64.08C462.709 64.08 459.104 62.9185 456.568 60.7238L455.914 61.48L455.259 62.2361C458.27 64.8414 462.399 66.08 467.514 66.08V65.08ZM455.914 61.48L456.576 60.731C454.104 58.5439 452.754 54.907 452.754 49.56H451.754H450.754C450.754 55.1996 452.177 59.5094 455.251 62.229L455.914 61.48ZM451.754 49.56H452.754V31.8H451.754H450.754V49.56H451.754ZM451.754 31.8V30.8H446.314V31.8V32.8H451.754V31.8ZM446.314 31.8H447.314V20.44H446.314H445.314V31.8H446.314ZM446.314 20.44V21.44H451.754V20.44V19.44H446.314V20.44ZM451.754 20.44H452.754V9.55996H451.754H450.754V20.44H451.754ZM451.754 9.55996V10.56H465.434V9.55996V8.55996H451.754V9.55996ZM465.434 9.55996H464.434V20.44H465.434H466.434V9.55996H465.434ZM465.434 20.44V21.44H474.394V20.44V19.44H465.434V20.44ZM474.394 20.44H473.394V31.8H474.394H475.394V20.44H474.394ZM474.394 31.8V30.8H465.434V31.8V32.8H474.394V31.8ZM465.434 31.8H464.434V49.72H465.434H466.434V31.8H465.434ZM465.434 49.72H464.434C464.434 51.1846 464.782 52.4795 465.718 53.3371L466.394 52.6L467.069 51.8628C466.725 51.547 466.434 50.922 466.434 49.72H465.434ZM466.394 52.6L465.718 53.3371C466.636 54.1788 468.016 54.48 469.594 54.48V53.48V52.48C468.185 52.48 467.431 52.1945 467.069 51.8628L466.394 52.6ZM469.594 53.48V54.48H474.474V53.48V52.48H469.594V53.48ZM481.934 30.6L481.042 30.1472L481.037 30.1583L481.934 30.6ZM489.054 22.6L489.584 23.448V23.448L489.054 22.6ZM507.294 21.72L506.815 22.5979L506.823 22.6023L507.294 21.72ZM512.814 26.76L511.962 27.284L513.814 30.293V26.76H512.814ZM512.814 20.44V19.44H511.814V20.44H512.814ZM526.494 20.44H527.494V19.44H526.494V20.44ZM526.494 65.08V66.08H527.494V65.08H526.494ZM512.814 65.08H511.814V66.08H512.814V65.08ZM512.814 58.76H513.814V55.347L511.972 58.2203L512.814 58.76ZM507.214 63.8L506.743 62.9176L506.735 62.9221L507.214 63.8ZM489.054 62.92L488.513 63.7612L488.524 63.768L489.054 62.92ZM481.934 54.84L481.034 55.2762L481.038 55.2845L481.042 55.2926L481.934 54.84ZM509.934 34.68L509.207 35.3672L509.217 35.3773L509.934 34.68ZM496.094 34.68L495.377 33.9826L495.377 33.9829L496.094 34.68ZM496.094 50.84L495.358 51.5174L495.367 51.5275L495.377 51.5373L496.094 50.84ZM509.934 50.84L509.217 50.1425L509.207 50.1528L509.934 50.84ZM479.374 42.68H480.374C480.374 38.218 481.203 34.3475 482.831 31.0416L481.934 30.6L481.037 30.1583C479.251 33.7858 478.374 37.9685 478.374 42.68H479.374ZM481.934 30.6L482.825 31.0526C484.512 27.7308 486.767 25.2084 489.584 23.448L489.054 22.6L488.524 21.752C485.367 23.7249 482.876 26.5357 481.042 30.1473L481.934 30.6ZM489.054 22.6L489.584 23.448C492.404 21.6852 495.552 20.8 499.054 20.8V19.8V18.8C495.195 18.8 491.677 19.7814 488.524 21.752L489.054 22.6ZM499.054 19.8V20.8C502.063 20.8 504.639 21.4111 506.815 22.5978L507.294 21.72L507.773 20.8421C505.255 19.4688 502.338 18.8 499.054 18.8V19.8ZM507.294 21.72L506.823 22.6023C509.085 23.8085 510.785 25.3718 511.962 27.284L512.814 26.76L513.665 26.2359C512.282 23.9881 510.303 22.1914 507.764 20.8376L507.294 21.72ZM512.814 26.76H513.814V20.44H512.814H511.814V26.76H512.814ZM512.814 20.44V21.44H526.494V20.44V19.44H512.814V20.44ZM526.494 20.44H525.494V65.08H526.494H527.494V20.44H526.494ZM526.494 65.08V64.08H512.814V65.08V66.08H526.494V65.08ZM512.814 65.08H513.814V58.76H512.814H511.814V65.08H512.814ZM512.814 58.76L511.972 58.2203C510.74 60.142 509.008 61.7098 506.743 62.9176L507.214 63.8L507.684 64.6823C510.22 63.3301 512.221 61.5379 513.656 59.2996L512.814 58.76ZM507.214 63.8L506.735 62.9221C504.559 64.1088 501.983 64.72 498.974 64.72V65.72V66.72C502.258 66.72 505.175 66.0511 507.693 64.6778L507.214 63.8ZM498.974 65.72V64.72C495.529 64.72 492.407 63.8362 489.584 62.072L489.054 62.92L488.524 63.768C491.674 65.737 495.165 66.72 498.974 66.72V65.72ZM489.054 62.92L489.594 62.0788C486.771 60.2638 484.513 57.7111 482.825 54.3873L481.934 54.84L481.042 55.2926C482.875 58.9022 485.363 61.7361 488.513 63.7611L489.054 62.92ZM481.934 54.84L482.834 54.4037C481.203 51.0412 480.374 47.1414 480.374 42.68H479.374H478.374C478.374 47.3918 479.251 51.5987 481.034 55.2762L481.934 54.84ZM512.814 42.76H513.814C513.814 39.152 512.793 36.185 510.65 33.9826L509.934 34.68L509.217 35.3773C510.914 37.1215 511.814 39.5412 511.814 42.76H512.814ZM509.934 34.68L510.66 33.9928C508.604 31.8194 506.048 30.72 503.054 30.72V31.72V32.72C505.499 32.72 507.53 33.5938 509.207 35.3672L509.934 34.68ZM503.054 31.72V30.72C500.06 30.72 497.483 31.8184 495.377 33.9826L496.094 34.68L496.81 35.3773C498.545 33.5948 500.607 32.72 503.054 32.72V31.72ZM496.094 34.68L495.377 33.9829C493.282 36.137 492.294 39.081 492.294 42.68H493.294H494.294C494.294 39.4523 495.172 37.0629 496.811 35.377L496.094 34.68ZM493.294 42.68H492.294C492.294 46.2816 493.283 49.2647 495.358 51.5174L496.094 50.84L496.829 50.1625C495.171 48.3619 494.294 45.905 494.294 42.68H493.294ZM496.094 50.84L495.377 51.5373C497.483 53.7015 500.06 54.8 503.054 54.8V53.8V52.8C500.607 52.8 498.545 51.9251 496.81 50.1426L496.094 50.84ZM503.054 53.8V54.8C506.048 54.8 508.604 53.7005 510.66 51.5272L509.934 50.84L509.207 50.1528C507.53 51.9261 505.499 52.8 503.054 52.8V53.8ZM509.934 50.84L510.65 51.5373C512.793 49.3349 513.814 46.3679 513.814 42.76H512.814H511.814C511.814 45.9787 510.914 48.3984 509.217 50.1426L509.934 50.84ZM537.351 13.72L536.656 14.4398L536.67 14.4524L536.683 14.4645L537.351 13.72ZM537.351 3.15995L538.031 3.89275L538.032 3.89185L537.351 3.15995ZM549.031 3.15995L548.336 3.8798L548.35 3.8924L548.363 3.90452L549.031 3.15995ZM549.031 13.72L549.711 14.4527L549.712 14.4518L549.031 13.72ZM550.071 20.44H551.071V19.44H550.071V20.44ZM550.071 65.08V66.08H551.071V65.08H550.071ZM536.391 65.08H535.391V66.08H536.391V65.08ZM536.391 20.44V19.44H535.391V20.44H536.391ZM543.271 15.7999V14.7999C541.076 14.7999 539.353 14.1722 538.018 12.9754L537.351 13.72L536.683 14.4645C538.441 16.041 540.665 16.7999 543.271 16.7999V15.7999ZM537.351 13.72L538.045 13.0001C536.747 11.7491 536.111 10.2492 536.111 8.43996H535.111H534.111C534.111 10.7907 534.967 12.8108 536.656 14.4398L537.351 13.72ZM535.111 8.43996H536.111C536.111 6.57001 536.752 5.08044 538.031 3.89275L537.351 3.15995L536.67 2.42716C534.963 4.0128 534.111 6.04324 534.111 8.43996H535.111ZM537.351 3.15995L538.032 3.89185C539.368 2.64778 541.087 1.99995 543.271 1.99995V0.99995V-4.95911e-05C540.655 -4.95911e-05 538.426 0.792124 536.669 2.42806L537.351 3.15995ZM543.271 0.99995V1.99995C545.395 1.99995 547.054 2.64355 548.336 3.8798L549.031 3.15995L549.725 2.44011C548.02 0.796356 545.839 -4.95911e-05 543.271 -4.95911e-05V0.99995ZM549.031 3.15995L548.363 3.90452C549.692 5.09575 550.351 6.58203 550.351 8.43996H551.351H552.351C552.351 6.03121 551.463 3.99749 549.698 2.41538L549.031 3.15995ZM551.351 8.43996H550.351C550.351 10.2373 549.696 11.7338 548.349 12.9881L549.031 13.72L549.712 14.4518C551.458 12.8261 552.351 10.8026 552.351 8.43996H551.351ZM549.031 13.72L548.35 12.9872C547.07 14.1761 545.406 14.7999 543.271 14.7999V15.7999V16.7999C545.829 16.7999 548.005 16.0372 549.711 14.4527L549.031 13.72ZM550.071 20.44H549.071V65.08H550.071H551.071V20.44H550.071ZM550.071 65.08V64.08H536.391V65.08V66.08H550.071V65.08ZM536.391 65.08H537.391V20.44H536.391H535.391V65.08H536.391ZM536.391 20.44V21.44H550.071V20.44V19.44H536.391V20.44ZM573.664 5.87996H574.664V4.87996H573.664V5.87996ZM573.664 65.08V66.08H574.664V65.08H573.664ZM559.984 65.08H558.984V66.08H559.984V65.08ZM559.984 5.87996V4.87996H558.984V5.87996H559.984ZM573.664 5.87996H572.664V65.08H573.664H574.664V5.87996H573.664ZM573.664 65.08V64.08H559.984V65.08V66.08H573.664V65.08ZM559.984 65.08H560.984V5.87996H559.984H558.984V65.08H559.984ZM559.984 5.87996V6.87996H573.664V5.87996V4.87996H559.984V5.87996ZM591.338 63.72L591.74 62.8042V62.8042L591.338 63.72ZM584.138 58.28L583.338 58.88L583.345 58.8888L584.138 58.28ZM581.178 50.44V49.44H580.101L580.181 50.5138L581.178 50.44ZM594.698 50.44L595.693 50.3371L595.6 49.44H594.698V50.44ZM596.858 54.2L597.458 53.4V53.4L596.858 54.2ZM605.498 54.68L606.075 55.497L606.084 55.4906L605.498 54.68ZM604.938 49.24L604.505 50.1415L604.52 50.1486L604.535 50.1553L604.938 49.24ZM598.458 47.16L598.701 46.1898L598.693 46.1879L598.685 46.1861L598.458 47.16ZM590.458 44.84L590.087 45.7684L590.097 45.7725L590.107 45.7763L590.458 44.84ZM584.938 40.92L584.177 41.5689L584.182 41.5745L584.187 41.5801L584.938 40.92ZM584.698 26.68L583.869 26.1205L583.866 26.1253L584.698 26.68ZM590.938 21.64L590.534 20.7254L590.527 20.7284L590.938 21.64ZM613.978 23.96L613.323 24.7157L613.329 24.721L613.978 23.96ZM619.578 35V36H620.688L620.573 34.8959L619.578 35ZM606.938 35L605.948 35.1366L606.067 36H606.938V35ZM604.858 31.32L604.229 32.0972L604.238 32.1043L604.247 32.1112L604.858 31.32ZM596.698 30.92L597.265 31.744L597.282 31.7323L597.298 31.72L596.698 30.92ZM597.418 36.28L596.985 37.1815L596.992 37.1847L596.999 37.1879L597.418 36.28ZM603.818 38.2L604.068 37.2317L604.052 37.2274L604.035 37.2238L603.818 38.2ZM611.898 40.76L611.519 41.6851L611.529 41.6893L611.539 41.6933L611.898 40.76ZM617.338 44.76L616.568 45.398L616.578 45.4099L616.588 45.4216L617.338 44.76ZM619.818 52.12H620.818V52.1113L620.818 52.1027L619.818 52.12ZM617.578 59.16L616.766 58.5767L616.763 58.5807L617.578 59.16ZM611.258 63.96L610.868 63.039L610.862 63.0417L611.258 63.96ZM601.738 65.72V64.72C597.959 64.72 594.633 64.0732 591.74 62.8042L591.338 63.72L590.936 64.6357C594.123 66.0334 597.73 66.72 601.738 66.72V65.72ZM591.338 63.72L591.74 62.8042C588.831 61.5284 586.574 59.8121 584.931 57.6711L584.138 58.28L583.345 58.8888C585.222 61.3345 587.765 63.2449 590.936 64.6357L591.338 63.72ZM584.138 58.28L584.938 57.68C583.291 55.4837 582.374 53.0523 582.175 50.3661L581.178 50.44L580.181 50.5138C580.409 53.5876 581.465 56.3829 583.338 58.88L584.138 58.28ZM581.178 50.44V51.44H594.698V50.44V49.44H581.178V50.44ZM594.698 50.44L593.703 50.5429C593.893 52.3757 594.762 53.8782 596.258 55L596.858 54.2L597.458 53.4C596.394 52.6017 595.823 51.5975 595.693 50.3371L594.698 50.44ZM596.858 54.2L596.258 55C597.739 56.1106 599.532 56.64 601.578 56.64V55.64V54.64C599.89 54.64 598.537 54.2094 597.458 53.4L596.858 54.2ZM601.578 55.64V56.64C603.387 56.64 604.931 56.3044 606.075 55.4969L605.498 54.68L604.921 53.863C604.252 54.3355 603.182 54.64 601.578 54.64V55.64ZM605.498 54.68L606.084 55.4906C607.271 54.6333 607.938 53.4667 607.938 52.04H606.938H605.938C605.938 52.7466 605.646 53.3399 604.913 53.8693L605.498 54.68ZM606.938 52.04H607.938C607.938 51.2168 607.72 50.4544 607.252 49.7987C606.789 49.1512 606.128 48.6711 605.341 48.3246L604.938 49.24L604.535 50.1553C605.081 50.3955 605.42 50.6754 605.624 50.9612C605.823 51.2388 605.938 51.5831 605.938 52.04H606.938ZM604.938 49.24L605.371 48.3384C603.941 47.6521 601.698 46.9392 598.701 46.1898L598.458 47.16L598.216 48.1301C601.191 48.874 603.268 49.5478 604.505 50.1415L604.938 49.24ZM598.458 47.16L598.685 46.1861C595.511 45.4454 592.889 44.6834 590.809 43.9036L590.458 44.84L590.107 45.7763C592.294 46.5965 595.005 47.3812 598.231 48.1338L598.458 47.16ZM590.458 44.84L590.829 43.9115C588.845 43.1177 587.134 41.9042 585.689 40.2598L584.938 40.92L584.187 41.5801C585.835 43.4557 587.805 44.8555 590.087 45.7684L590.458 44.84ZM584.938 40.92L585.699 40.271C584.345 38.6839 583.618 36.5093 583.618 33.64H582.618H581.618C581.618 36.8507 582.438 39.5293 584.177 41.5689L584.938 40.92ZM582.618 33.64H583.618C583.618 31.2723 584.256 29.1462 585.53 27.2347L584.698 26.68L583.866 26.1253C582.367 28.3737 581.618 30.8876 581.618 33.64H582.618ZM584.698 26.68L585.527 27.2394C586.847 25.2831 588.771 23.7143 591.349 22.5515L590.938 21.64L590.527 20.7284C587.665 22.019 585.429 23.8101 583.869 26.1205L584.698 26.68ZM590.938 21.64L591.343 22.5545C593.961 21.3963 597.097 20.8 600.778 20.8V19.8V18.8C596.886 18.8 593.462 19.4302 590.534 20.7254L590.938 21.64ZM600.778 19.8V20.8C606.216 20.8 610.357 22.1447 613.323 24.7156L613.978 23.96L614.633 23.2043C611.199 20.2285 606.54 18.8 600.778 18.8V19.8ZM613.978 23.96L613.329 24.721C616.371 27.314 618.128 30.7506 618.584 35.104L619.578 35L620.573 34.8959C620.068 30.076 618.092 26.1526 614.627 23.1989L613.978 23.96ZM619.578 35V34H606.938V35V36H619.578V35ZM606.938 35L607.929 34.8633C607.682 33.0724 606.862 31.6046 605.47 30.5287L604.858 31.32L604.247 32.1112C605.201 32.8486 605.768 33.8341 605.948 35.1366L606.938 35ZM604.858 31.32L605.487 30.5427C604.142 29.454 602.405 28.96 600.378 28.96V29.96V30.96C602.084 30.96 603.334 31.3726 604.229 32.0972L604.858 31.32ZM600.378 29.96V28.96C598.665 28.96 597.192 29.2996 596.098 30.12L596.698 30.92L597.298 31.72C597.911 31.2603 598.892 30.96 600.378 30.96V29.96ZM596.698 30.92L596.132 30.0959C594.997 30.8757 594.418 32.0158 594.418 33.4H595.418H596.418C596.418 32.6508 596.692 32.1375 597.265 31.744L596.698 30.92ZM595.418 33.4H594.418C594.418 34.2235 594.636 34.9869 595.097 35.6504C595.552 36.3055 596.203 36.8061 596.985 37.1815L597.418 36.28L597.851 35.3784C597.299 35.1138 596.951 34.8144 596.74 34.5096C596.534 34.213 596.418 33.8564 596.418 33.4H595.418ZM597.418 36.28L596.999 37.1879C598.485 37.8739 600.703 38.5322 603.601 39.1761L603.818 38.2L604.035 37.2238C601.173 36.5877 599.124 35.966 597.837 35.372L597.418 36.28ZM603.818 38.2L603.568 39.1682C606.851 40.0154 609.496 40.8555 611.519 41.6851L611.898 40.76L612.278 39.8348C610.14 38.9577 607.399 38.0912 604.068 37.2317L603.818 38.2ZM611.898 40.76L611.539 41.6933C613.445 42.4264 615.121 43.6515 616.568 45.398L617.338 44.76L618.108 44.1219C616.462 42.1351 614.511 40.6935 612.257 39.8266L611.898 40.76ZM617.338 44.76L616.588 45.4216C617.991 47.0116 618.768 49.2136 618.818 52.1372L619.818 52.12L620.818 52.1027C620.762 48.8397 619.885 46.135 618.088 44.0983L617.338 44.76ZM619.818 52.12H618.818C618.818 54.5287 618.134 56.6704 616.766 58.5768L617.578 59.16L618.39 59.7432C620.008 57.4895 620.818 54.9379 620.818 52.12H619.818ZM617.578 59.16L616.763 58.5807C615.451 60.4271 613.507 61.9226 610.868 63.039L611.258 63.96L611.648 64.8809C614.556 63.6507 616.825 61.9461 618.393 59.7392L617.578 59.16ZM611.258 63.96L610.862 63.0417C608.292 64.1505 605.258 64.72 601.738 64.72V65.72V66.72C605.471 66.72 608.784 66.1161 611.654 64.8782L611.258 63.96Z" fill="black" fill-opacity="0.05" mask="url(#path-1-outside-1_1_527)"/>
</svg>
